STARTFONT 2.1
COMMENT ======================================================================
COMMENT  This is the ESTC font hacked for Linux consoles by Daniel Yacob for
COMMENT  Agafari-14.psf.
COMMENT
COMMENT  The Ethiopian Science and Technology Commission / National Computer
COMMENT  and Information Center makes this font available for non-commercial
COMMENT  use under UNIX operating systems.
COMMENT
COMMENT  Available at:  ftp://ftp.cs.indiana.edu/pub/fidel/fonts/linux/
COMMENT ======================================================================
FONT -Agafari-ZemenFixed-Medium-R-Normal--14-150-100-100-M-140-Ethiopic-Unicode
SIZE 14 100 100
FONTBOUNDINGBOX 8 14 0 -2
STARTPROPERTIES 4
COPYRIGHT "GNU GPL 2.0"
DEFAULT_CHAR 318
FONT_ASCENT 6
FONT_DESCENT 2
ENDPROPERTIES
CHARS 353
STARTCHAR he
ENCODING 0
SWIDTH 903 0
DWIDTH 8 0
BBX 8 14 0 -2
BITMAP
06
66
66
66
66
66
66
66
66
66
3e
1c
00
00
ENDCHAR
STARTCHAR a1c5
ENCODING 1
SWIDTH 903 0
DWIDTH 8 0
BBX 8 14 0 -2
BITMAP
0c
cc
cc
cc
cf
cf
cc
cc
cc
cc
7c
38
00
00
ENDCHAR
STARTCHAR a1c6
ENCODING 2
SWIDTH 903 0
DWIDTH 8 0
BBX 8 14 0 -2
BITMAP
0c
cc
cc
cc
cc
7c
0c
08
18
18
30
3e
06
00
ENDCHAR
STARTCHAR a1c7
ENCODING 3
SWIDTH 903 0
DWIDTH 8 0
BBX 8 14 0 -2
BITMAP
06
66
66
66
66
3e
06
04
0c
0c
0c
0c
00
00
ENDCHAR
STARTCHAR a1c8
ENCODING 4
SWIDTH 903 0
DWIDTH 8 0
BBX 8 14 0 -2
BITMAP
0c
cc
cc
cc
cc
7c
0c
18
18
36
26
36
1c
00
ENDCHAR
STARTCHAR a1dc
ENCODING 5
SWIDTH 903 0
DWIDTH 8 0
BBX 8 14 0 -2
BITMAP
06
c6
c6
c6
66
66
66
66
66
66
3e
1c
00
00
ENDCHAR
STARTCHAR a1e1
ENCODING 6
SWIDTH 903 0
DWIDTH 8 0
BBX 8 14 0 -2
BITMAP
07
cd
cd
cf
cc
cc
cc
cc
cc
cc
7c
38
00
00
ENDCHAR
STARTCHAR le
ENCODING 7
SWIDTH 903 0
DWIDTH 8 0
BBX 8 14 0 -2
BITMAP
18
18
30
30
7c
66
66
66
66
66
66
66
00
00
ENDCHAR
STARTCHAR a1e4
ENCODING 8
SWIDTH 903 0
DWIDTH 8 0
BBX 8 14 0 -2
BITMAP
30
30
60
60
f8
cc
cc
cf
cd
cc
cc
cc
00
00
ENDCHAR
STARTCHAR a1e5
ENCODING 9
SWIDTH 903 0
DWIDTH 8 0
BBX 8 14 0 -2
BITMAP
30
30
60
60
f8
cc
cc
cc
cc
cc
cc
cf
03
00
ENDCHAR
STARTCHAR a1e6
ENCODING 10
SWIDTH 903 0
DWIDTH 8 0
BBX 8 14 0 -2
BITMAP
18
18
30
30
7c
66
66
66
66
06
06
06
00
00
ENDCHAR
STARTCHAR a1e7
ENCODING 11
SWIDTH 903 0
DWIDTH 8 0
BBX 8 14 0 -2
BITMAP
30
30
60
60
f8
cc
cc
cc
ce
cd
cd
cf
00
00
ENDCHAR
STARTCHAR a1e8
ENCODING 12
SWIDTH 903 0
DWIDTH 8 0
BBX 8 14 0 -2
BITMAP
00
30
30
70
78
cc
c4
c6
e6
d6
d6
66
00
00
ENDCHAR
STARTCHAR a1e9
ENCODING 13
SWIDTH 903 0
DWIDTH 8 0
BBX 8 14 0 -2
BITMAP
30
30
60
60
f0
d8
df
dd
df
d8
d8
d8
00
00
ENDCHAR
STARTCHAR a1e6
ENCODING 14
SWIDTH 903 0
DWIDTH 8 0
BBX 8 14 0 -2
BITMAP
30
30
60
60
f8
cc
cc
cc
cc
0c
0c
3f
63
00
ENDCHAR
STARTCHAR le
ENCODING 15
SWIDTH 903 0
DWIDTH 8 0
BBX 8 14 0 -2
BITMAP
10
10
10
10
38
7c
d6
d6
d6
d6
d6
d6
00
00
ENDCHAR
STARTCHAR a1e4
ENCODING 16
SWIDTH 903 0
DWIDTH 8 0
BBX 8 14 0 -2
BITMAP
10
10
10
10
38
7c
d6
d6
d7
d6
d6
d6
00
00
ENDCHAR
STARTCHAR a1e5
ENCODING 17
SWIDTH 903 0
DWIDTH 8 0
BBX 8 14 0 -2
BITMAP
10
10
10
10
38
7c
d6
d6
d6
d6
d6
d7
03
00
ENDCHAR
STARTCHAR a1e6
ENCODING 18
SWIDTH 903 0
DWIDTH 8 0
BBX 8 14 0 -2
BITMAP
10
10
10
10
38
7c
d6
d6
d6
d6
06
06
00
00
ENDCHAR
STARTCHAR a1e7
ENCODING 19
SWIDTH 903 0
DWIDTH 8 0
BBX 8 14 0 -2
BITMAP
10
10
10
10
38
7c
d6
d6
d6
d7
d5
d7
00
00
ENDCHAR
STARTCHAR a1e8
ENCODING 20
SWIDTH 903 0
DWIDTH 8 0
BBX 8 14 0 -2
BITMAP
20
20
30
10
38
7c
d6
d6
d6
d6
d6
d6
00
00
ENDCHAR
STARTCHAR a1e9
ENCODING 21
SWIDTH 903 0
DWIDTH 8 0
BBX 8 14 0 -2
BITMAP
10
10
10
10
38
7c
d6
d6
d6
d6
c0
c0
00
00
ENDCHAR
STARTCHAR HWa
ENCODING 22
SWIDTH 903 0
DWIDTH 8 0
BBX 8 14 0 -2
BITMAP
10
10
10
10
38
7c
d6
d6
d6
06
06
1b
33
00
ENDCHAR
STARTCHAR me
ENCODING 23
SWIDTH 903 0
DWIDTH 8 0
BBX 8 14 0 -2
BITMAP
00
1c
6a
aa
aa
aa
aa
aa
aa
aa
a4
40
00
00
ENDCHAR
STARTCHAR a1ec
ENCODING 24
SWIDTH 903 0
DWIDTH 8 0
BBX 8 14 0 -2
BITMAP
00
1c
6a
aa
aa
ab
aa
aa
aa
aa
a4
40
00
00
ENDCHAR
STARTCHAR a1ed
ENCODING 25
SWIDTH 903 0
DWIDTH 8 0
BBX 8 14 0 -2
BITMAP
1c
6a
aa
aa
aa
aa
ae
a2
42
02
03
01
00
00
ENDCHAR
STARTCHAR a1ee
ENCODING 26
SWIDTH 903 0
DWIDTH 8 0
BBX 8 14 0 -2
BITMAP
1c
6a
aa
aa
aa
aa
ae
a2
42
02
02
02
00
00
ENDCHAR
STARTCHAR a1ef
ENCODING 27
SWIDTH 903 0
DWIDTH 8 0
BBX 8 14 0 -2
BITMAP
1c
6a
aa
aa
aa
aa
ae
a2
42
03
03
03
00
00
ENDCHAR
STARTCHAR a1f0
ENCODING 28
SWIDTH 903 0
DWIDTH 8 0
BBX 8 14 0 -2
BITMAP
1c
6a
aa
aa
aa
aa
a4
e0
20
20
40
40
00
00
ENDCHAR
STARTCHAR a1f1
ENCODING 29
SWIDTH 903 0
DWIDTH 8 0
BBX 8 14 0 -2
BITMAP
1c
6a
aa
aa
aa
aa
a4
e0
20
20
20
20
00
00
ENDCHAR
STARTCHAR mWa
ENCODING 30
SWIDTH 903 0
DWIDTH 8 0
BBX 8 14 0 -2
BITMAP
1c
6a
aa
aa
aa
aa
ae
a2
42
02
02
1f
11
00
ENDCHAR
STARTCHAR se
ENCODING 31
SWIDTH 903 0
DWIDTH 8 0
BBX 8 14 0 -2
BITMAP
00
00
16
d6
d6
d6
d6
d6
dc
f0
60
00
00
00
ENDCHAR
STARTCHAR a1f3
ENCODING 32
SWIDTH 903 0
DWIDTH 8 0
BBX 8 14 0 -2
BITMAP
00
00
16
d6
d7
d7
d6
d6
dc
f0
60
00
00
00
ENDCHAR
STARTCHAR a1f4
ENCODING 33
SWIDTH 903 0
DWIDTH 8 0
BBX 8 14 0 -2
BITMAP
d6
d6
d6
d6
d6
de
76
04
0c
0c
18
1f
03
00
ENDCHAR
STARTCHAR a1f5
ENCODING 34
SWIDTH 903 0
DWIDTH 8 0
BBX 8 14 0 -2
BITMAP
d6
d6
d6
d6
d6
de
76
04
0c
0c
0c
0c
00
00
ENDCHAR
STARTCHAR a1f6
ENCODING 35
SWIDTH 903 0
DWIDTH 8 0
BBX 8 14 0 -2
BITMAP
d6
d6
d6
d6
d6
de
76
04
0c
0f
0d
0f
00
00
ENDCHAR
STARTCHAR a1f7
ENCODING 36
SWIDTH 903 0
DWIDTH 8 0
BBX 8 14 0 -2
BITMAP
0b
6b
6b
6b
6b
6e
78
60
60
c0
c0
c0
00
00
ENDCHAR
STARTCHAR a1f8
ENCODING 37
SWIDTH 903 0
DWIDTH 8 0
BBX 8 14 0 -2
BITMAP
0b
6b
6b
6b
6b
6e
3c
18
30
60
c0
c0
c0
00
ENDCHAR
STARTCHAR sWa
ENCODING 38
SWIDTH 903 0
DWIDTH 8 0
BBX 8 14 0 -2
BITMAP
d6
d6
d6
d6
d6
fe
66
04
0c
0c
0c
37
63
00
ENDCHAR
STARTCHAR re
ENCODING 39
SWIDTH 903 0
DWIDTH 8 0
BBX 8 14 0 -2
BITMAP
00
18
18
30
30
60
60
c0
c0
c0
7f
03
00
00
ENDCHAR
STARTCHAR a1fa
ENCODING 40
SWIDTH 903 0
DWIDTH 8 0
BBX 8 14 0 -2
BITMAP
00
18
18
30
30
60
60
c0
c0
7f
1b
18
00
00
ENDCHAR
STARTCHAR a1fb
ENCODING 41
SWIDTH 903 0
DWIDTH 8 0
BBX 8 14 0 -2
BITMAP
00
18
18
30
30
60
60
c0
c6
c3
e3
7e
00
00
ENDCHAR
STARTCHAR a1fc
ENCODING 42
SWIDTH 903 0
DWIDTH 8 0
BBX 8 14 0 -2
BITMAP
00
18
18
30
30
60
60
c7
cd
cc
cc
78
00
00
ENDCHAR
STARTCHAR a1fe
ENCODING 43
SWIDTH 903 0
DWIDTH 8 0
BBX 8 14 0 -2
BITMAP
00
18
18
30
30
60
60
c0
c6
c9
79
06
00
00
ENDCHAR
STARTCHAR a2a1
ENCODING 44
SWIDTH 903 0
DWIDTH 8 0
BBX 8 14 0 -2
BITMAP
00
3e
66
c2
c0
c0
c0
c0
c0
c0
7e
06
00
00
ENDCHAR
STARTCHAR a2a3
ENCODING 45
SWIDTH 903 0
DWIDTH 8 0
BBX 8 14 0 -2
BITMAP
06
3d
65
c7
c0
c0
c0
c0
c0
c0
7e
06
00
00
ENDCHAR
STARTCHAR rWa
ENCODING 46
SWIDTH 903 0
DWIDTH 8 0
BBX 8 14 0 -2
BITMAP
c3
ff
18
30
30
60
60
c7
cd
cc
cc
78
00
00
ENDCHAR
STARTCHAR se
ENCODING 47
SWIDTH 903 0
DWIDTH 8 0
BBX 8 14 0 -2
BITMAP
18
18
18
3e
66
66
66
66
66
66
66
66
00
00
ENDCHAR
STARTCHAR a1f3
ENCODING 48
SWIDTH 903 0
DWIDTH 8 0
BBX 8 14 0 -2
BITMAP
30
30
30
7c
cc
cc
cf
cf
cc
cc
cc
cc
00
00
ENDCHAR
STARTCHAR a1f4
ENCODING 49
SWIDTH 903 0
DWIDTH 8 0
BBX 8 14 0 -2
BITMAP
30
30
30
7c
cc
cc
cc
cc
cc
cc
cc
cf
03
00
ENDCHAR
STARTCHAR a1f5
ENCODING 50
SWIDTH 903 0
DWIDTH 8 0
BBX 8 14 0 -2
BITMAP
18
18
18
3e
66
66
66
66
66
06
06
06
00
00
ENDCHAR
STARTCHAR a1f6
ENCODING 51
SWIDTH 903 0
DWIDTH 8 0
BBX 8 14 0 -2
BITMAP
30
30
30
7c
cc
cc
cc
cc
cc
cf
cd
cf
00
00
ENDCHAR
STARTCHAR a1f7
ENCODING 52
SWIDTH 903 0
DWIDTH 8 0
BBX 8 14 0 -2
BITMAP
30
30
18
3e
66
66
66
66
66
66
66
66
00
00
ENDCHAR
STARTCHAR a1f8
ENCODING 53
SWIDTH 903 0
DWIDTH 8 0
BBX 8 14 0 -2
BITMAP
18
18
18
3e
66
66
66
66
66
60
60
60
00
00
ENDCHAR
STARTCHAR sWa
ENCODING 54
SWIDTH 903 0
DWIDTH 8 0
BBX 8 14 0 -2
BITMAP
30
30
30
7c
cc
cc
cc
cc
cc
0c
0c
37
63
00
ENDCHAR
STARTCHAR xe
ENCODING 55
SWIDTH 903 0
DWIDTH 8 0
BBX 8 14 0 -2
BITMAP
7e
5a
18
3e
66
66
66
66
66
66
66
66
00
00
ENDCHAR
STARTCHAR a2a5
ENCODING 56
SWIDTH 903 0
DWIDTH 8 0
BBX 8 14 0 -2
BITMAP
fc
b4
30
7c
cc
cc
cf
cf
cc
cc
cc
cc
00
00
ENDCHAR
STARTCHAR a2a6
ENCODING 57
SWIDTH 903 0
DWIDTH 8 0
BBX 8 14 0 -2
BITMAP
fc
b4
30
7c
cc
cc
cc
cc
cc
cc
cc
cf
03
00
ENDCHAR
STARTCHAR a2a7
ENCODING 58
SWIDTH 903 0
DWIDTH 8 0
BBX 8 14 0 -2
BITMAP
7e
5a
18
3e
66
66
66
66
66
06
06
06
00
00
ENDCHAR
STARTCHAR a2a7
ENCODING 59
SWIDTH 903 0
DWIDTH 8 0
BBX 8 14 0 -2
BITMAP
fc
b4
30
7c
cc
cc
cc
cc
cc
0f
0d
0f
00
00
ENDCHAR
STARTCHAR a2a8
ENCODING 60
SWIDTH 903 0
DWIDTH 8 0
BBX 8 14 0 -2
BITMAP
fe
b2
18
3e
66
66
66
66
66
66
66
66
00
00
ENDCHAR
STARTCHAR a2a9
ENCODING 61
SWIDTH 903 0
DWIDTH 8 0
BBX 8 14 0 -2
BITMAP
7e
5a
18
3e
66
66
66
66
60
60
60
60
00
00
ENDCHAR
STARTCHAR xWa
ENCODING 62
SWIDTH 903 0
DWIDTH 8 0
BBX 8 14 0 -2
BITMAP
fc
b4
30
7c
cc
cc
cc
cc
cc
0c
0c
37
63
00
ENDCHAR
STARTCHAR qe
ENCODING 63
SWIDTH 903 0
DWIDTH 8 0
BBX 8 14 0 -2
BITMAP
18
18
18
7e
db
db
db
7e
18
18
18
18
00
00
ENDCHAR
STARTCHAR a2ab
ENCODING 64
SWIDTH 903 0
DWIDTH 8 0
BBX 8 14 0 -2
BITMAP
18
18
18
7e
db
db
db
7e
18
1f
1b
18
00
00
ENDCHAR
STARTCHAR a2ac
ENCODING 65
SWIDTH 903 0
DWIDTH 8 0
BBX 8 14 0 -2
BITMAP
18
18
18
7e
db
db
db
7e
18
18
0f
03
00
00
ENDCHAR
STARTCHAR a2ad
ENCODING 66
SWIDTH 903 0
DWIDTH 8 0
BBX 8 14 0 -2
BITMAP
18
18
18
7e
db
db
db
7e
18
30
e0
c0
00
00
ENDCHAR
STARTCHAR a2ae
ENCODING 67
SWIDTH 903 0
DWIDTH 8 0
BBX 8 14 0 -2
BITMAP
18
18
18
7e
db
db
db
7e
18
1e
1b
1b
0e
00
ENDCHAR
STARTCHAR a2af
ENCODING 68
SWIDTH 903 0
DWIDTH 8 0
BBX 8 14 0 -2
BITMAP
60
60
18
18
7e
db
db
db
7e
18
18
18
00
00
ENDCHAR
STARTCHAR a2b0
ENCODING 69
SWIDTH 903 0
DWIDTH 8 0
BBX 8 14 0 -2
BITMAP
18
24
24
18
7e
db
db
db
7e
18
18
18
18
00
ENDCHAR
STARTCHAR Qe
ENCODING 70
SWIDTH 903 0
DWIDTH 8 0
BBX 8 14 0 -2
BITMAP
18
18
18
7e
db
db
db
7e
1b
1d
1b
18
00
00
ENDCHAR
STARTCHAR a2ab
ENCODING 71
SWIDTH 903 0
DWIDTH 8 0
BBX 8 14 0 -2
BITMAP
18
18
18
7e
db
db
db
7e
18
1e
1b
18
00
00
ENDCHAR
STARTCHAR qWa
ENCODING 72
SWIDTH 903 0
DWIDTH 8 0
BBX 8 14 0 -2
BITMAP
18
18
18
7e
db
db
db
7e
18
18
7e
c3
03
00
ENDCHAR
STARTCHAR a2ae
ENCODING 73
SWIDTH 903 0
DWIDTH 8 0
BBX 8 14 0 -2
BITMAP
18
18
18
7e
db
db
db
7e
18
1e
1b
3e
60
00
ENDCHAR
STARTCHAR a2af
ENCODING 74
SWIDTH 903 0
DWIDTH 8 0
BBX 8 14 0 -2
BITMAP
18
18
18
7e
db
db
db
7e
1a
1f
19
18
00
00
ENDCHAR
STARTCHAR Qe
ENCODING 75
SWIDTH 903 0
DWIDTH 8 0
BBX 8 14 0 -2
BITMAP
c3
7e
18
7e
db
db
db
7e
18
18
18
18
00
00
ENDCHAR
STARTCHAR a2ab
ENCODING 76
SWIDTH 903 0
DWIDTH 8 0
BBX 8 14 0 -2
BITMAP
c3
7e
18
7e
db
db
db
7e
18
1f
1b
18
00
00
ENDCHAR
STARTCHAR a2ac
ENCODING 77
SWIDTH 903 0
DWIDTH 8 0
BBX 8 14 0 -2
BITMAP
c3
7e
18
7e
db
db
db
7e
18
18
0f
03
00
00
ENDCHAR
STARTCHAR a2ad
ENCODING 78
SWIDTH 903 0
DWIDTH 8 0
BBX 8 14 0 -2
BITMAP
c3
7e
18
7e
db
db
db
7e
18
30
e0
c0
00
00
ENDCHAR
STARTCHAR a2ae
ENCODING 79
SWIDTH 903 0
DWIDTH 8 0
BBX 8 14 0 -2
BITMAP
c3
7e
18
7e
db
db
db
7e
18
1e
1b
1b
0e
00
ENDCHAR
STARTCHAR a2af
ENCODING 80
SWIDTH 903 0
DWIDTH 8 0
BBX 8 14 0 -2
BITMAP
fe
b2
18
18
7e
db
db
db
7e
18
18
18
00
00
ENDCHAR
STARTCHAR a2b0
ENCODING 81
SWIDTH 903 0
DWIDTH 8 0
BBX 8 14 0 -2
BITMAP
ff
a5
24
18
7e
db
db
db
7e
18
18
18
18
00
ENDCHAR
STARTCHAR qWe
ENCODING 82
SWIDTH 903 0
DWIDTH 8 0
BBX 8 14 0 -2
BITMAP
c3
7e
18
7e
db
db
db
7e
18
1b
1d
1b
00
00
ENDCHAR
STARTCHAR a2ab
ENCODING 83
SWIDTH 903 0
DWIDTH 8 0
BBX 8 14 0 -2
BITMAP
c3
7e
18
7e
db
db
db
7e
18
1e
1b
18
00
00
ENDCHAR
STARTCHAR QWa
ENCODING 84
SWIDTH 903 0
DWIDTH 8 0
BBX 8 14 0 -2
BITMAP
c3
7e
18
7e
db
db
db
7e
18
18
7e
c3
03
00
ENDCHAR
STARTCHAR a2ae
ENCODING 85
SWIDTH 903 0
DWIDTH 8 0
BBX 8 14 0 -2
BITMAP
c3
7e
18
7e
db
db
db
7e
18
1e
1b
3e
60
00
ENDCHAR
STARTCHAR a2af
ENCODING 86
SWIDTH 903 0
DWIDTH 8 0
BBX 8 14 0 -2
BITMAP
c3
7e
18
7e
db
db
db
7e
1a
1f
19
18
00
00
ENDCHAR
STARTCHAR be
ENCODING 87
SWIDTH 903 0
DWIDTH 8 0
BBX 8 14 0 -2
BITMAP
00
3c
66
66
66
66
66
66
66
66
66
66
00
00
ENDCHAR
STARTCHAR a2b3
ENCODING 88
SWIDTH 903 0
DWIDTH 8 0
BBX 8 14 0 -2
BITMAP
00
78
cc
cc
cc
cc
cf
cf
cc
cc
cc
cc
00
00
ENDCHAR
STARTCHAR a2b4
ENCODING 89
SWIDTH 903 0
DWIDTH 8 0
BBX 8 14 0 -2
BITMAP
00
78
cc
cc
cc
cc
cc
cc
cc
cc
cc
cf
03
00
ENDCHAR
STARTCHAR a2b5
ENCODING 90
SWIDTH 903 0
DWIDTH 8 0
BBX 8 14 0 -2
BITMAP
00
3c
66
66
66
66
66
66
06
06
06
06
00
00
ENDCHAR
STARTCHAR a2b6
ENCODING 91
SWIDTH 903 0
DWIDTH 8 0
BBX 8 14 0 -2
BITMAP
00
78
cc
cc
cc
cc
cc
cc
cf
cd
cd
cf
00
00
ENDCHAR
STARTCHAR a2b7
ENCODING 92
SWIDTH 903 0
DWIDTH 8 0
BBX 8 14 0 -2
BITMAP
00
1e
33
33
33
f3
f3
33
33
33
33
33
00
00
ENDCHAR
STARTCHAR a2b8
ENCODING 93
SWIDTH 903 0
DWIDTH 8 0
BBX 8 14 0 -2
BITMAP
00
3c
66
66
66
66
66
66
66
60
60
60
00
00
ENDCHAR
STARTCHAR a2b9
ENCODING 94
SWIDTH 903 0
DWIDTH 8 0
BBX 8 14 0 -2
BITMAP
00
78
cc
cc
cc
cc
cc
cc
0c
0c
3c
33
03
00
ENDCHAR
STARTCHAR ve
ENCODING 95
SWIDTH 903 0
DWIDTH 8 0
BBX 8 14 0 -2
BITMAP
7e
00
3c
66
66
66
66
66
66
66
66
66
00
00
ENDCHAR
STARTCHAR a2b3
ENCODING 96
SWIDTH 903 0
DWIDTH 8 0
BBX 8 14 0 -2
BITMAP
fc
00
78
cc
cc
cc
cf
cf
cc
cc
cc
cc
00
00
ENDCHAR
STARTCHAR a2b4
ENCODING 97
SWIDTH 903 0
DWIDTH 8 0
BBX 8 14 0 -2
BITMAP
fc
00
78
cc
cc
cc
cc
cc
cc
cc
cc
cf
03
00
ENDCHAR
STARTCHAR a2b5
ENCODING 98
SWIDTH 903 0
DWIDTH 8 0
BBX 8 14 0 -2
BITMAP
7e
00
3c
66
66
66
66
66
06
06
06
06
00
00
ENDCHAR
STARTCHAR a2b6
ENCODING 99
SWIDTH 903 0
DWIDTH 8 0
BBX 8 14 0 -2
BITMAP
fc
00
78
cc
cc
cc
cc
cc
cf
cd
cd
cf
00
00
ENDCHAR
STARTCHAR a2b7
ENCODING 100
SWIDTH 903 0
DWIDTH 8 0
BBX 8 14 0 -2
BITMAP
3f
00
1e
33
33
f3
f3
33
33
33
33
33
00
00
ENDCHAR
STARTCHAR a2b8
ENCODING 101
SWIDTH 903 0
DWIDTH 8 0
BBX 8 14 0 -2
BITMAP
7e
00
3c
66
66
66
66
66
66
60
60
60
00
00
ENDCHAR
STARTCHAR a2b9
ENCODING 102
SWIDTH 903 0
DWIDTH 8 0
BBX 8 14 0 -2
BITMAP
fc
00
78
cc
cc
cc
cc
cc
0c
0c
3c
33
03
00
ENDCHAR
STARTCHAR te
ENCODING 103
SWIDTH 903 0
DWIDTH 8 0
BBX 8 14 0 -2
BITMAP
18
18
18
18
ff
db
18
18
18
18
18
18
00
00
ENDCHAR
STARTCHAR a2bb
ENCODING 104
SWIDTH 903 0
DWIDTH 8 0
BBX 8 14 0 -2
BITMAP
18
18
18
18
ff
db
18
18
1f
1b
18
18
00
00
ENDCHAR
STARTCHAR a2bc
ENCODING 105
SWIDTH 903 0
DWIDTH 8 0
BBX 8 14 0 -2
BITMAP
18
18
18
18
ff
db
18
18
18
18
1f
03
00
00
ENDCHAR
STARTCHAR a2bd
ENCODING 106
SWIDTH 903 0
DWIDTH 8 0
BBX 8 14 0 -2
BITMAP
18
18
18
ff
db
18
18
18
30
60
c0
c0
00
00
ENDCHAR
STARTCHAR a2be
ENCODING 107
SWIDTH 903 0
DWIDTH 8 0
BBX 8 14 0 -2
BITMAP
18
18
18
18
ff
db
18
18
1e
1b
1b
0e
00
00
ENDCHAR
STARTCHAR a2bf
ENCODING 108
SWIDTH 903 0
DWIDTH 8 0
BBX 8 14 0 -2
BITMAP
60
60
38
18
18
ff
db
18
18
18
18
18
00
00
ENDCHAR
STARTCHAR a2c0
ENCODING 109
SWIDTH 903 0
DWIDTH 8 0
BBX 8 14 0 -2
BITMAP
18
24
24
18
18
ff
db
18
18
18
18
18
00
00
ENDCHAR
STARTCHAR a2c1
ENCODING 110
SWIDTH 903 0
DWIDTH 8 0
BBX 8 14 0 -2
BITMAP
18
18
18
18
ff
db
18
18
18
18
7e
c3
03
00
ENDCHAR
STARTCHAR a2c3
ENCODING 111
SWIDTH 903 0
DWIDTH 8 0
BBX 8 14 0 -2
BITMAP
c3
ff
db
18
18
ff
db
18
18
18
18
18
00
00
ENDCHAR
STARTCHAR a2c4
ENCODING 112
SWIDTH 903 0
DWIDTH 8 0
BBX 8 14 0 -2
BITMAP
c3
ff
db
18
18
ff
db
18
1f
1b
18
18
00
00
ENDCHAR
STARTCHAR a2c5
ENCODING 113
SWIDTH 903 0
DWIDTH 8 0
BBX 8 14 0 -2
BITMAP
c3
ff
db
18
18
ff
db
18
18
18
18
0f
03
00
ENDCHAR
STARTCHAR a2c6
ENCODING 114
SWIDTH 903 0
DWIDTH 8 0
BBX 8 14 0 -2
BITMAP
c3
ff
db
18
18
ff
db
18
18
30
60
c0
c0
00
ENDCHAR
STARTCHAR a2c7
ENCODING 115
SWIDTH 903 0
DWIDTH 8 0
BBX 8 14 0 -2
BITMAP
c3
ff
db
18
18
ff
db
18
18
1e
1b
1b
0e
00
ENDCHAR
STARTCHAR a2c8
ENCODING 116
SWIDTH 903 0
DWIDTH 8 0
BBX 8 14 0 -2
BITMAP
c6
fe
30
30
18
18
ff
db
18
18
18
18
18
00
ENDCHAR
STARTCHAR a2c9
ENCODING 117
SWIDTH 903 0
DWIDTH 8 0
BBX 8 14 0 -2
BITMAP
db
e7
24
18
18
18
ff
db
18
18
18
18
18
00
ENDCHAR
STARTCHAR a2ca
ENCODING 118
SWIDTH 903 0
DWIDTH 8 0
BBX 8 14 0 -2
BITMAP
c3
ff
db
18
18
ff
db
18
18
18
7f
c3
03
00
ENDCHAR
STARTCHAR `he
ENCODING 119
SWIDTH 903 0
DWIDTH 8 0
BBX 8 14 0 -2
BITMAP
18
18
78
d8
ce
06
06
06
0c
0c
0c
0c
00
00
ENDCHAR
STARTCHAR a2cc
ENCODING 120
SWIDTH 903 0
DWIDTH 8 0
BBX 8 14 0 -2
BITMAP
30
30
70
b0
9c
0c
0f
0d
18
18
18
18
00
00
ENDCHAR
STARTCHAR a2cd
ENCODING 121
SWIDTH 903 0
DWIDTH 8 0
BBX 8 14 0 -2
BITMAP
18
18
78
d8
ce
06
06
06
0c
0c
0c
07
00
00
ENDCHAR
STARTCHAR a1e2
ENCODING 122
SWIDTH 903 0
DWIDTH 8 0
BBX 8 14 0 -2
BITMAP
18
18
78
d8
ce
06
06
06
0c
18
30
30
00
00
ENDCHAR
STARTCHAR a2cf
ENCODING 123
SWIDTH 903 0
DWIDTH 8 0
BBX 8 14 0 -2
BITMAP
18
18
78
d8
ce
06
06
06
0c
0c
1e
1b
0e
00
ENDCHAR
STARTCHAR a2d0
ENCODING 124
SWIDTH 903 0
DWIDTH 8 0
BBX 8 14 0 -2
BITMAP
18
18
78
d8
ce
c6
06
06
0c
0c
0c
0c
00
00
ENDCHAR
STARTCHAR a2d1
ENCODING 125
SWIDTH 903 0
DWIDTH 8 0
BBX 8 14 0 -2
BITMAP
00
07
1d
35
f7
b0
30
1c
06
06
06
06
00
00
ENDCHAR
STARTCHAR hWe
ENCODING 126
SWIDTH 903 0
DWIDTH 8 0
BBX 8 14 0 -2
BITMAP
30
30
70
b0
9c
0f
0d
0f
18
18
18
18
00
00
ENDCHAR
STARTCHAR a2cd
ENCODING 127
SWIDTH 903 0
DWIDTH 8 0
BBX 8 14 0 -2
BITMAP
30
30
70
b0
98
1a
1e
1a
33
30
30
30
00
00
ENDCHAR
STARTCHAR a2ce
ENCODING 128
SWIDTH 903 0
DWIDTH 8 0
BBX 8 14 0 -2
BITMAP
20
20
60
b8
ac
06
06
06
0c
7e
c3
c3
00
00
ENDCHAR
STARTCHAR a2cf
ENCODING 129
SWIDTH 903 0
DWIDTH 8 0
BBX 8 14 0 -2
BITMAP
18
18
78
d8
ce
06
06
06
0c
0e
1b
3e
60
00
ENDCHAR
STARTCHAR a2d0
ENCODING 130
SWIDTH 903 0
DWIDTH 8 0
BBX 8 14 0 -2
BITMAP
30
30
70
b0
98
1a
1f
19
30
30
30
30
00
00
ENDCHAR
STARTCHAR ne
ENCODING 131
SWIDTH 903 0
DWIDTH 8 0
BBX 8 14 0 -2
BITMAP
60
60
60
60
38
0c
0c
18
18
30
30
30
00
00
ENDCHAR
STARTCHAR a2cc
ENCODING 132
SWIDTH 903 0
DWIDTH 8 0
BBX 8 14 0 -2
BITMAP
c0
c0
c0
c0
70
18
1e
37
30
60
60
60
00
00
ENDCHAR
STARTCHAR a2cd
ENCODING 133
SWIDTH 903 0
DWIDTH 8 0
BBX 8 14 0 -2
BITMAP
c0
c0
c0
c0
70
18
18
30
30
60
7c
0e
00
00
ENDCHAR
STARTCHAR a2ce
ENCODING 134
SWIDTH 903 0
DWIDTH 8 0
BBX 8 14 0 -2
BITMAP
3c
66
c6
c0
c0
c0
60
3c
0c
0c
0c
0c
00
00
ENDCHAR
STARTCHAR a2cf
ENCODING 135
SWIDTH 903 0
DWIDTH 8 0
BBX 8 14 0 -2
BITMAP
60
60
60
60
38
0c
0c
18
18
3c
36
1c
00
00
ENDCHAR
STARTCHAR a2d0
ENCODING 136
SWIDTH 903 0
DWIDTH 8 0
BBX 8 14 0 -2
BITMAP
78
cc
0c
18
30
38
0c
0c
18
30
30
30
00
00
ENDCHAR
STARTCHAR a2d1
ENCODING 137
SWIDTH 903 0
DWIDTH 8 0
BBX 8 14 0 -2
BITMAP
06
3d
65
c3
c0
c0
60
3c
06
06
06
06
00
00
ENDCHAR
STARTCHAR a2d2
ENCODING 138
SWIDTH 903 0
DWIDTH 8 0
BBX 8 14 0 -2
BITMAP
00
3e
66
c3
c0
c0
60
38
0c
0c
0c
37
23
00
ENDCHAR
STARTCHAR Ne
ENCODING 139
SWIDTH 903 0
DWIDTH 8 0
BBX 8 14 0 -2
BITMAP
c6
fe
30
30
38
0c
0c
18
18
30
30
30
00
00
ENDCHAR
STARTCHAR a2d4
ENCODING 140
SWIDTH 903 0
DWIDTH 8 0
BBX 8 14 0 -2
BITMAP
c6
fe
30
30
38
0c
0f
1b
18
30
30
30
00
00
ENDCHAR
STARTCHAR a2d5
ENCODING 141
SWIDTH 903 0
DWIDTH 8 0
BBX 8 14 0 -2
BITMAP
c6
fe
30
30
38
0c
0c
18
18
30
3e
07
00
00
ENDCHAR
STARTCHAR a2d6
ENCODING 142
SWIDTH 903 0
DWIDTH 8 0
BBX 8 14 0 -2
BITMAP
c6
fe
18
66
c6
c0
c0
60
3c
0c
0c
0c
00
00
ENDCHAR
STARTCHAR a2d5
ENCODING 143
SWIDTH 903 0
DWIDTH 8 0
BBX 8 14 0 -2
BITMAP
c6
fe
30
30
38
0c
0c
18
18
3c
36
1c
00
00
ENDCHAR
STARTCHAR a2d7
ENCODING 144
SWIDTH 903 0
DWIDTH 8 0
BBX 8 14 0 -2
BITMAP
84
cc
30
f8
8c
18
30
0c
0c
18
30
30
00
00
ENDCHAR
STARTCHAR a2d8
ENCODING 145
SWIDTH 903 0
DWIDTH 8 0
BBX 8 14 0 -2
BITMAP
c6
fe
30
37
7d
c5
c7
c0
7c
0c
0c
0c
00
00
ENDCHAR
STARTCHAR NWa
ENCODING 146
SWIDTH 903 0
DWIDTH 8 0
BBX 8 14 0 -2
BITMAP
c6
fe
18
7e
c6
c0
c0
7c
0c
0c
0c
37
23
00
ENDCHAR
STARTCHAR a2d9
ENCODING 147
SWIDTH 903 0
DWIDTH 8 0
BBX 8 14 0 -2
BITMAP
60
60
78
18
30
7c
66
66
66
66
66
66
00
00
ENDCHAR
STARTCHAR a2da
ENCODING 148
SWIDTH 903 0
DWIDTH 8 0
BBX 8 14 0 -2
BITMAP
c0
c0
f0
30
60
f8
cc
cf
cd
cc
cc
cc
00
00
ENDCHAR
STARTCHAR a2db
ENCODING 149
SWIDTH 903 0
DWIDTH 8 0
BBX 8 14 0 -2
BITMAP
c0
c0
f0
30
60
f8
cc
cc
cc
cc
cc
cf
03
00
ENDCHAR
STARTCHAR A
ENCODING 150
SWIDTH 903 0
DWIDTH 8 0
BBX 8 14 0 -2
BITMAP
60
60
78
18
30
7c
66
66
66
06
06
06
00
00
ENDCHAR
STARTCHAR a2dc
ENCODING 151
SWIDTH 903 0
DWIDTH 8 0
BBX 8 14 0 -2
BITMAP
c0
c0
f0
30
60
f8
cc
cc
cc
cf
cd
cf
00
00
ENDCHAR
STARTCHAR a2dd
ENCODING 152
SWIDTH 903 0
DWIDTH 8 0
BBX 8 14 0 -2
BITMAP
60
60
30
30
18
30
7c
66
66
66
66
66
00
00
ENDCHAR
STARTCHAR a2de
ENCODING 153
SWIDTH 903 0
DWIDTH 8 0
BBX 8 14 0 -2
BITMAP
60
60
78
18
30
7c
66
66
66
66
60
60
00
00
ENDCHAR
STARTCHAR ea
ENCODING 154
SWIDTH 903 0
DWIDTH 8 0
BBX 8 14 0 -2
BITMAP
cc
fc
30
3c
0c
18
3e
33
33
33
33
33
00
00
ENDCHAR
STARTCHAR ke
ENCODING 155
SWIDTH 903 0
DWIDTH 8 0
BBX 8 14 0 -2
BITMAP
60
60
60
3c
26
66
66
66
66
66
66
66
00
00
ENDCHAR
STARTCHAR a2e0
ENCODING 156
SWIDTH 903 0
DWIDTH 8 0
BBX 8 14 0 -2
BITMAP
c0
c0
c0
78
4c
cc
cc
cf
cd
cc
cc
cc
00
00
ENDCHAR
STARTCHAR a2e1
ENCODING 157
SWIDTH 903 0
DWIDTH 8 0
BBX 8 14 0 -2
BITMAP
c0
c0
c0
78
4c
cc
cc
cc
cc
cc
cc
cf
03
00
ENDCHAR
STARTCHAR a2e2
ENCODING 158
SWIDTH 903 0
DWIDTH 8 0
BBX 8 14 0 -2
BITMAP
60
60
60
3c
26
66
66
66
66
06
06
06
00
00
ENDCHAR
STARTCHAR a2e3
ENCODING 159
SWIDTH 903 0
DWIDTH 8 0
BBX 8 14 0 -2
BITMAP
c0
c0
c0
78
4c
cc
cc
cc
cc
cf
cd
cf
00
00
ENDCHAR
STARTCHAR a2e4
ENCODING 160
SWIDTH 903 0
DWIDTH 8 0
BBX 8 14 0 -2
BITMAP
c0
c0
c0
7c
c6
c6
66
66
c6
c6
c6
c6
00
00
ENDCHAR
STARTCHAR a2e5
ENCODING 161
SWIDTH 903 0
DWIDTH 8 0
BBX 8 14 0 -2
BITMAP
60
60
60
3c
26
66
66
66
66
60
60
60
00
00
ENDCHAR
STARTCHAR kWe
ENCODING 162
SWIDTH 903 0
DWIDTH 8 0
BBX 8 14 0 -2
BITMAP
c0
c0
c0
78
4c
cf
cd
cf
cc
cc
cc
cc
00
00
ENDCHAR
STARTCHAR a2e1
ENCODING 163
SWIDTH 903 0
DWIDTH 8 0
BBX 8 14 0 -2
BITMAP
c0
c0
c0
78
4c
cd
cf
cd
cd
cc
cc
cc
00
00
ENDCHAR
STARTCHAR kWa
ENCODING 164
SWIDTH 903 0
DWIDTH 8 0
BBX 8 14 0 -2
BITMAP
c0
c0
c0
78
4c
cc
cc
cc
cc
0c
37
63
00
00
ENDCHAR
STARTCHAR a2e3
ENCODING 165
SWIDTH 903 0
DWIDTH 8 0
BBX 8 14 0 -2
BITMAP
c0
c0
c0
78
4c
cc
cc
cc
cc
0e
0b
1e
30
00
ENDCHAR
STARTCHAR a2e4
ENCODING 166
SWIDTH 903 0
DWIDTH 8 0
BBX 8 14 0 -2
BITMAP
c0
c0
c0
78
4c
cc
ca
cf
cd
cc
cc
cc
00
00
ENDCHAR
STARTCHAR Ke
ENCODING 167
SWIDTH 903 0
DWIDTH 8 0
BBX 8 14 0 -2
BITMAP
cc
fc
b4
30
1e
13
33
33
33
33
33
33
00
00
ENDCHAR
STARTCHAR a2e0
ENCODING 168
SWIDTH 903 0
DWIDTH 8 0
BBX 8 14 0 -2
BITMAP
0c
fc
f4
b0
3c
26
66
67
66
66
66
66
00
00
ENDCHAR
STARTCHAR a2e1
ENCODING 169
SWIDTH 903 0
DWIDTH 8 0
BBX 8 14 0 -2
BITMAP
0c
fc
f4
b0
3c
26
66
66
66
66
66
67
03
00
ENDCHAR
STARTCHAR a2e2
ENCODING 170
SWIDTH 903 0
DWIDTH 8 0
BBX 8 14 0 -2
BITMAP
cc
fc
b4
30
1e
13
33
33
33
03
03
03
00
00
ENDCHAR
STARTCHAR a2e3
ENCODING 171
SWIDTH 903 0
DWIDTH 8 0
BBX 8 14 0 -2
BITMAP
1c
fc
f4
b0
3c
66
66
66
66
67
65
67
00
00
ENDCHAR
STARTCHAR a2e4
ENCODING 172
SWIDTH 903 0
DWIDTH 8 0
BBX 8 14 0 -2
BITMAP
0c
fc
b4
30
1e
33
33
1b
1b
33
33
33
00
00
ENDCHAR
STARTCHAR a2e5
ENCODING 173
SWIDTH 903 0
DWIDTH 8 0
BBX 8 14 0 -2
BITMAP
cc
fc
b4
30
1e
13
33
33
33
30
30
30
00
00
ENDCHAR
STARTCHAR KWe
ENCODING 174
SWIDTH 903 0
DWIDTH 8 0
BBX 8 14 0 -2
BITMAP
0c
fc
f4
b0
3c
26
67
65
67
66
66
66
00
00
ENDCHAR
STARTCHAR a2e1
ENCODING 175
SWIDTH 903 0
DWIDTH 8 0
BBX 8 14 0 -2
BITMAP
18
f8
e8
a0
78
4d
cf
cd
cd
cc
cc
cc
00
00
ENDCHAR
STARTCHAR a2e6
ENCODING 176
SWIDTH 903 0
DWIDTH 8 0
BBX 8 14 0 -2
BITMAP
0c
fc
f4
b0
3c
26
66
66
06
06
1f
33
00
00
ENDCHAR
STARTCHAR a2e3
ENCODING 177
SWIDTH 903 0
DWIDTH 8 0
BBX 8 14 0 -2
BITMAP
0c
fc
f4
b0
3c
26
66
66
06
07
05
0f
18
00
ENDCHAR
STARTCHAR a2e4
ENCODING 178
SWIDTH 903 0
DWIDTH 8 0
BBX 8 14 0 -2
BITMAP
18
f8
e8
a0
78
cc
ca
cf
cd
cc
cc
cc
00
00
ENDCHAR
STARTCHAR we
ENCODING 179
SWIDTH 903 0
DWIDTH 8 0
BBX 8 14 0 -2
BITMAP
00
1e
7b
db
db
db
db
db
de
d8
60
00
00
00
ENDCHAR
STARTCHAR wu
ENCODING 180
SWIDTH 903 0
DWIDTH 8 0
BBX 8 14 0 -2
BITMAP
00
1e
7b
db
db
db
db
db
de
d8
6f
03
00
00
ENDCHAR
STARTCHAR a2e8
ENCODING 181
SWIDTH 903 0
DWIDTH 8 0
BBX 8 14 0 -2
BITMAP
1e
7b
db
db
db
de
78
18
18
18
1f
03
00
00
ENDCHAR
STARTCHAR a2e9
ENCODING 182
SWIDTH 903 0
DWIDTH 8 0
BBX 8 14 0 -2
BITMAP
1e
7b
db
db
db
de
78
18
18
18
18
18
00
00
ENDCHAR
STARTCHAR a2ea
ENCODING 183
SWIDTH 903 0
DWIDTH 8 0
BBX 8 14 0 -2
BITMAP
1e
7b
db
db
db
de
78
18
1e
1b
1b
1e
00
00
ENDCHAR
STARTCHAR a2eb
ENCODING 184
SWIDTH 903 0
DWIDTH 8 0
BBX 8 14 0 -2
BITMAP
00
18
74
b4
b4
b7
b5
b4
b4
b8
60
00
00
00
ENDCHAR
STARTCHAR a2ec
ENCODING 185
SWIDTH 903 0
DWIDTH 8 0
BBX 8 14 0 -2
BITMAP
7e
db
db
db
db
7e
18
30
60
c0
c0
c0
00
00
ENDCHAR
STARTCHAR `e
ENCODING 186
SWIDTH 903 0
DWIDTH 8 0
BBX 8 14 0 -2
BITMAP
0c
3e
36
66
66
66
66
66
66
66
6c
38
00
00
ENDCHAR
STARTCHAR a3cc
ENCODING 187
SWIDTH 903 0
DWIDTH 8 0
BBX 8 14 0 -2
BITMAP
18
7c
6c
cc
cc
cc
cf
cd
cc
cc
d8
70
00
00
ENDCHAR
STARTCHAR a3cd
ENCODING 188
SWIDTH 903 0
DWIDTH 8 0
BBX 8 14 0 -2
BITMAP
78
cc
cc
cc
cc
7e
06
0c
0c
18
1f
03
00
00
ENDCHAR
STARTCHAR a3ce
ENCODING 189
SWIDTH 903 0
DWIDTH 8 0
BBX 8 14 0 -2
BITMAP
78
cc
cc
cc
cc
7e
06
0c
0c
18
18
18
00
00
ENDCHAR
STARTCHAR a3cf
ENCODING 190
SWIDTH 903 0
DWIDTH 8 0
BBX 8 14 0 -2
BITMAP
78
cc
cc
cc
cc
7e
06
0c
0c
1f
1b
1f
00
00
ENDCHAR
STARTCHAR a3d0
ENCODING 191
SWIDTH 903 0
DWIDTH 8 0
BBX 8 14 0 -2
BITMAP
18
18
18
3c
36
66
66
66
66
66
6c
38
00
00
ENDCHAR
STARTCHAR a3d1
ENCODING 192
SWIDTH 903 0
DWIDTH 8 0
BBX 8 14 0 -2
BITMAP
3c
66
66
66
66
3e
0c
18
30
60
60
60
00
00
ENDCHAR
STARTCHAR ze
ENCODING 193
SWIDTH 903 0
DWIDTH 8 0
BBX 8 14 0 -2
BITMAP
00
66
66
66
66
7e
66
66
66
66
66
66
00
00
ENDCHAR
STARTCHAR a2ee
ENCODING 194
SWIDTH 903 0
DWIDTH 8 0
BBX 8 14 0 -2
BITMAP
00
cc
cc
cc
cc
fc
cf
cd
cc
cc
cc
cc
00
00
ENDCHAR
STARTCHAR a2ef
ENCODING 195
SWIDTH 903 0
DWIDTH 8 0
BBX 8 14 0 -2
BITMAP
00
cc
cc
cc
cc
fc
cc
cc
cc
cc
cc
cf
03
00
ENDCHAR
STARTCHAR a2f0
ENCODING 196
SWIDTH 903 0
DWIDTH 8 0
BBX 8 14 0 -2
BITMAP
00
66
66
66
66
7e
66
66
66
06
06
06
00
00
ENDCHAR
STARTCHAR a2f1
ENCODING 197
SWIDTH 903 0
DWIDTH 8 0
BBX 8 14 0 -2
BITMAP
00
cc
cc
cc
cc
fc
cc
cc
cc
cf
cd
cf
00
00
ENDCHAR
STARTCHAR a2f2
ENCODING 198
SWIDTH 903 0
DWIDTH 8 0
BBX 8 14 0 -2
BITMAP
00
f3
f3
33
33
3f
33
33
33
33
33
33
00
00
ENDCHAR
STARTCHAR a2f3
ENCODING 199
SWIDTH 903 0
DWIDTH 8 0
BBX 8 14 0 -2
BITMAP
00
66
66
66
66
7e
66
66
66
60
60
60
00
00
ENDCHAR
STARTCHAR a2f4
ENCODING 200
SWIDTH 903 0
DWIDTH 8 0
BBX 8 14 0 -2
BITMAP
00
cc
cc
cc
fc
cc
cc
cc
0c
0c
37
33
00
00
ENDCHAR
STARTCHAR Ze
ENCODING 201
SWIDTH 903 0
DWIDTH 8 0
BBX 8 14 0 -2
BITMAP
00
ee
6c
6c
6c
7c
6c
6c
6c
6c
6c
6c
00
00
ENDCHAR
STARTCHAR a2f6
ENCODING 202
SWIDTH 903 0
DWIDTH 8 0
BBX 8 14 0 -2
BITMAP
00
ee
6c
6c
6c
7c
6f
6d
6c
6c
6c
6c
00
00
ENDCHAR
STARTCHAR a2f6
ENCODING 203
SWIDTH 903 0
DWIDTH 8 0
BBX 8 14 0 -2
BITMAP
00
ee
6c
6c
6c
7c
6c
6c
6c
6c
6c
6f
03
00
ENDCHAR
STARTCHAR a2f7
ENCODING 204
SWIDTH 903 0
DWIDTH 8 0
BBX 8 14 0 -2
BITMAP
00
ee
6c
6c
6c
7c
6c
6c
6c
0c
0c
0c
00
00
ENDCHAR
STARTCHAR a2f8
ENCODING 205
SWIDTH 903 0
DWIDTH 8 0
BBX 8 14 0 -2
BITMAP
00
ee
6c
6c
6c
7c
6c
6c
6c
6f
6d
6f
00
00
ENDCHAR
STARTCHAR a2f9
ENCODING 206
SWIDTH 903 0
DWIDTH 8 0
BBX 8 14 0 -2
BITMAP
e0
40
f7
36
36
3e
36
36
36
36
36
36
00
00
ENDCHAR
STARTCHAR a2fa
ENCODING 207
SWIDTH 903 0
DWIDTH 8 0
BBX 8 14 0 -2
BITMAP
00
ee
6c
6c
6c
7c
6c
6c
6c
60
60
60
00
00
ENDCHAR
STARTCHAR a2f7
ENCODING 208
SWIDTH 903 0
DWIDTH 8 0
BBX 8 14 0 -2
BITMAP
00
ee
6c
6c
6c
7c
6c
6c
6c
0c
37
33
00
00
ENDCHAR
STARTCHAR ye
ENCODING 209
SWIDTH 903 0
DWIDTH 8 0
BBX 8 14 0 -2
BITMAP
1c
36
66
66
66
7c
30
30
18
18
18
18
00
00
ENDCHAR
STARTCHAR a2fc
ENCODING 210
SWIDTH 903 0
DWIDTH 8 0
BBX 8 14 0 -2
BITMAP
38
6c
cc
cc
cc
f8
60
60
3e
36
30
30
00
00
ENDCHAR
STARTCHAR a2fc
ENCODING 211
SWIDTH 903 0
DWIDTH 8 0
BBX 8 14 0 -2
BITMAP
38
6c
cc
cc
cc
f8
66
66
3f
33
30
30
00
00
ENDCHAR
STARTCHAR a2fd
ENCODING 212
SWIDTH 903 0
DWIDTH 8 0
BBX 8 14 0 -2
BITMAP
1c
36
66
66
7c
30
18
0c
1c
30
60
60
00
00
ENDCHAR
STARTCHAR a2fc
ENCODING 213
SWIDTH 903 0
DWIDTH 8 0
BBX 8 14 0 -2
BITMAP
38
6c
cc
cc
cc
f8
60
67
3d
37
30
30
00
00
ENDCHAR
STARTCHAR a2fe
ENCODING 214
SWIDTH 903 0
DWIDTH 8 0
BBX 8 14 0 -2
BITMAP
38
6c
cc
cc
d8
f0
63
33
1e
60
c0
c0
00
00
ENDCHAR
STARTCHAR a3a1
ENCODING 215
SWIDTH 903 0
DWIDTH 8 0
BBX 8 14 0 -2
BITMAP
38
6c
cf
cd
cc
f8
60
60
30
30
30
30
00
00
ENDCHAR
STARTCHAR yWa
ENCODING 216
SWIDTH 903 0
DWIDTH 8 0
BBX 8 14 0 -2
BITMAP
c6
7c
38
6c
cc
cc
cc
f8
60
60
30
30
30
00
ENDCHAR
STARTCHAR de
ENCODING 217
SWIDTH 903 0
DWIDTH 8 0
BBX 8 14 0 -2
BITMAP
1c
36
66
66
66
66
7c
30
1e
66
66
66
00
00
ENDCHAR
STARTCHAR a3a3
ENCODING 218
SWIDTH 903 0
DWIDTH 8 0
BBX 8 14 0 -2
BITMAP
38
6c
cc
cc
cc
cc
f8
60
3c
cf
cd
cc
00
00
ENDCHAR
STARTCHAR a3a4
ENCODING 219
SWIDTH 903 0
DWIDTH 8 0
BBX 8 14 0 -2
BITMAP
38
6c
cc
cc
cc
cc
f8
60
3c
cc
cc
cf
03
00
ENDCHAR
STARTCHAR a3a5
ENCODING 220
SWIDTH 903 0
DWIDTH 8 0
BBX 8 14 0 -2
BITMAP
1c
36
66
66
66
66
7c
30
1e
66
66
06
00
00
ENDCHAR
STARTCHAR a3a6
ENCODING 221
SWIDTH 903 0
DWIDTH 8 0
BBX 8 14 0 -2
BITMAP
38
6c
cc
cc
cc
cc
f8
60
3c
cf
cd
cf
00
00
ENDCHAR
STARTCHAR a3a7
ENCODING 222
SWIDTH 903 0
DWIDTH 8 0
BBX 8 14 0 -2
BITMAP
38
6c
cc
cf
cd
cc
f8
60
3c
cc
cc
cc
00
00
ENDCHAR
STARTCHAR a3a8
ENCODING 223
SWIDTH 903 0
DWIDTH 8 0
BBX 8 14 0 -2
BITMAP
38
6c
cc
cc
cc
cc
f8
60
3c
ce
c6
c0
00
00
ENDCHAR
STARTCHAR a3a9
ENCODING 224
SWIDTH 903 0
DWIDTH 8 0
BBX 8 14 0 -2
BITMAP
38
6c
cc
cc
cc
cc
f8
60
3c
cc
8c
33
33
00
ENDCHAR
STARTCHAR De
ENCODING 225
SWIDTH 903 0
DWIDTH 8 0
BBX 8 14 0 -2
BITMAP
1c
36
66
7e
66
66
7c
30
1e
66
66
66
00
00
ENDCHAR
STARTCHAR a3a3
ENCODING 226
SWIDTH 903 0
DWIDTH 8 0
BBX 8 14 0 -2
BITMAP
38
6c
cc
fc
cc
cc
f8
60
3c
cf
cd
cc
00
00
ENDCHAR
STARTCHAR a3a4
ENCODING 227
SWIDTH 903 0
DWIDTH 8 0
BBX 8 14 0 -2
BITMAP
38
6c
cc
fc
cc
cc
f8
60
3c
cc
cc
cf
03
00
ENDCHAR
STARTCHAR a3a5
ENCODING 228
SWIDTH 903 0
DWIDTH 8 0
BBX 8 14 0 -2
BITMAP
1c
36
66
7e
66
66
7c
30
1e
66
66
06
00
00
ENDCHAR
STARTCHAR a3a6
ENCODING 229
SWIDTH 903 0
DWIDTH 8 0
BBX 8 14 0 -2
BITMAP
38
6c
cc
fc
cc
cc
f8
60
3c
cf
cd
cf
00
00
ENDCHAR
STARTCHAR a3a7
ENCODING 230
SWIDTH 903 0
DWIDTH 8 0
BBX 8 14 0 -2
BITMAP
38
6c
cc
ff
cd
cc
f8
60
3c
cc
cc
cc
00
00
ENDCHAR
STARTCHAR a3a8
ENCODING 231
SWIDTH 903 0
DWIDTH 8 0
BBX 8 14 0 -2
BITMAP
38
6c
cc
fc
cc
cc
f8
60
3c
ce
c6
c0
00
00
ENDCHAR
STARTCHAR a3a9
ENCODING 232
SWIDTH 903 0
DWIDTH 8 0
BBX 8 14 0 -2
BITMAP
38
6c
cc
fc
cc
cc
f8
60
3c
cc
8c
33
33
00
ENDCHAR
STARTCHAR je
ENCODING 233
SWIDTH 903 0
DWIDTH 8 0
BBX 8 14 0 -2
BITMAP
fe
30
78
cc
cc
cc
f8
60
3c
cc
cc
cc
00
00
ENDCHAR
STARTCHAR a3ab
ENCODING 234
SWIDTH 903 0
DWIDTH 8 0
BBX 8 14 0 -2
BITMAP
fe
30
78
cc
cc
cc
f8
60
3c
cf
cd
cc
00
00
ENDCHAR
STARTCHAR a3ac
ENCODING 235
SWIDTH 903 0
DWIDTH 8 0
BBX 8 14 0 -2
BITMAP
fe
30
78
cc
cc
cc
f8
60
3c
cc
cc
cf
03
00
ENDCHAR
STARTCHAR a3ad
ENCODING 236
SWIDTH 903 0
DWIDTH 8 0
BBX 8 14 0 -2
BITMAP
fe
30
78
cc
cc
cc
f8
60
3c
cc
cc
0c
00
00
ENDCHAR
STARTCHAR a3ae
ENCODING 237
SWIDTH 903 0
DWIDTH 8 0
BBX 8 14 0 -2
BITMAP
fe
30
78
cc
cc
cc
f8
60
3c
cf
cd
cf
00
00
ENDCHAR
STARTCHAR a3af
ENCODING 238
SWIDTH 903 0
DWIDTH 8 0
BBX 8 14 0 -2
BITMAP
fe
30
78
cc
cf
cd
f8
60
3c
cc
cc
cc
00
00
ENDCHAR
STARTCHAR a3b0
ENCODING 239
SWIDTH 903 0
DWIDTH 8 0
BBX 8 14 0 -2
BITMAP
fe
30
78
cc
cc
cc
f8
60
3c
cc
c0
c0
00
00
ENDCHAR
STARTCHAR a3ad
ENCODING 240
SWIDTH 903 0
DWIDTH 8 0
BBX 8 14 0 -2
BITMAP
fe
30
78
cc
cc
cc
f8
60
3c
cc
8c
33
33
00
ENDCHAR
STARTCHAR ge
ENCODING 241
SWIDTH 903 0
DWIDTH 8 0
BBX 8 14 0 -2
BITMAP
3c
66
66
06
06
0c
0c
0c
18
18
18
18
00
00
ENDCHAR
STARTCHAR a3b2
ENCODING 242
SWIDTH 903 0
DWIDTH 8 0
BBX 8 14 0 -2
BITMAP
78
cc
cc
0c
0c
1f
19
18
30
30
30
30
00
00
ENDCHAR
STARTCHAR a3b3
ENCODING 243
SWIDTH 903 0
DWIDTH 8 0
BBX 8 14 0 -2
BITMAP
78
cc
cc
0c
0c
18
18
18
30
30
36
3e
06
00
ENDCHAR
STARTCHAR a3b4
ENCODING 244
SWIDTH 903 0
DWIDTH 8 0
BBX 8 14 0 -2
BITMAP
3c
66
66
06
06
06
06
06
1c
f0
c0
c0
00
00
ENDCHAR
STARTCHAR a3b5
ENCODING 245
SWIDTH 903 0
DWIDTH 8 0
BBX 8 14 0 -2
BITMAP
3c
66
66
06
06
0c
0c
0c
1e
1b
1b
0e
00
00
ENDCHAR
STARTCHAR a3b6
ENCODING 246
SWIDTH 903 0
DWIDTH 8 0
BBX 8 14 0 -2
BITMAP
7c
e6
a6
e6
06
0c
0c
0c
18
18
18
18
00
00
ENDCHAR
STARTCHAR a3b7
ENCODING 247
SWIDTH 903 0
DWIDTH 8 0
BBX 8 14 0 -2
BITMAP
18
18
3c
66
66
06
0c
0c
0c
18
18
18
00
00
ENDCHAR
STARTCHAR gWe
ENCODING 248
SWIDTH 903 0
DWIDTH 8 0
BBX 8 14 0 -2
BITMAP
78
cc
cc
0c
0c
1b
1d
1b
30
30
30
30
00
00
ENDCHAR
STARTCHAR a3b3
ENCODING 249
SWIDTH 903 0
DWIDTH 8 0
BBX 8 14 0 -2
BITMAP
78
cc
cc
0c
0c
1a
1e
1a
33
30
30
30
00
00
ENDCHAR
STARTCHAR gWa
ENCODING 250
SWIDTH 903 0
DWIDTH 8 0
BBX 8 14 0 -2
BITMAP
00
00
78
cc
cc
3c
66
66
06
0c
0c
0c
00
00
ENDCHAR
STARTCHAR a3b5
ENCODING 251
SWIDTH 903 0
DWIDTH 8 0
BBX 8 14 0 -2
BITMAP
00
3c
66
66
06
0c
0c
18
1c
36
7c
c0
00
00
ENDCHAR
STARTCHAR a3b6
ENCODING 252
SWIDTH 903 0
DWIDTH 8 0
BBX 8 14 0 -2
BITMAP
78
cc
cc
0c
0c
1a
1f
19
30
30
30
30
00
00
ENDCHAR
STARTCHAR Ge
ENCODING 253
SWIDTH 903 0
DWIDTH 8 0
BBX 8 14 0 -2
BITMAP
fc
00
78
cc
cc
0c
18
18
18
30
30
30
00
00
ENDCHAR
STARTCHAR a3b2
ENCODING 254
SWIDTH 903 0
DWIDTH 8 0
BBX 8 14 0 -2
BITMAP
fc
00
78
cc
cc
0c
1f
19
18
30
30
30
00
00
ENDCHAR
STARTCHAR a3b3
ENCODING 255
SWIDTH 903 0
DWIDTH 8 0
BBX 8 14 0 -2
BITMAP
fc
00
78
cc
cc
0c
18
18
18
30
36
3e
06
00
ENDCHAR
STARTCHAR a3b4
ENCODING 256
SWIDTH 903 0
DWIDTH 8 0
BBX 8 14 0 -2
BITMAP
7e
00
3c
66
66
06
06
06
1c
f0
c0
c0
00
00
ENDCHAR
STARTCHAR a3b5
ENCODING 257
SWIDTH 903 0
DWIDTH 8 0
BBX 8 14 0 -2
BITMAP
fc
00
78
cc
cc
0c
18
18
18
3c
36
36
1c
00
ENDCHAR
STARTCHAR a3b6
ENCODING 258
SWIDTH 903 0
DWIDTH 8 0
BBX 8 14 0 -2
BITMAP
fe
00
7c
e6
a6
e6
0c
0c
0c
18
18
18
00
00
ENDCHAR
STARTCHAR a3b7
ENCODING 259
SWIDTH 903 0
DWIDTH 8 0
BBX 8 14 0 -2
BITMAP
fc
30
78
cc
cc
0c
18
18
18
30
30
30
00
00
ENDCHAR
STARTCHAR Te
ENCODING 260
SWIDTH 903 0
DWIDTH 8 0
BBX 8 14 0 -2
BITMAP
00
38
68
a8
a8
a8
a8
a8
a8
a8
a8
a8
00
00
ENDCHAR
STARTCHAR a3ba
ENCODING 261
SWIDTH 903 0
DWIDTH 8 0
BBX 8 14 0 -2
BITMAP
00
38
68
a8
a8
a8
ae
aa
a8
a8
a8
a8
00
00
ENDCHAR
STARTCHAR a3bb
ENCODING 262
SWIDTH 903 0
DWIDTH 8 0
BBX 8 14 0 -2
BITMAP
00
38
68
a8
a8
a8
a8
a8
a8
a8
a8
ae
02
00
ENDCHAR
STARTCHAR a3bc
ENCODING 263
SWIDTH 903 0
DWIDTH 8 0
BBX 8 14 0 -2
BITMAP
00
38
68
a8
a8
a8
a8
a8
08
08
08
08
00
00
ENDCHAR
STARTCHAR a3bd
ENCODING 264
SWIDTH 903 0
DWIDTH 8 0
BBX 8 14 0 -2
BITMAP
00
38
68
a8
a8
a8
a8
a8
ae
aa
aa
ae
00
00
ENDCHAR
STARTCHAR a3be
ENCODING 265
SWIDTH 903 0
DWIDTH 8 0
BBX 8 14 0 -2
BITMAP
00
7c
92
92
92
92
18
08
08
08
08
08
00
00
ENDCHAR
STARTCHAR a3bf
ENCODING 266
SWIDTH 903 0
DWIDTH 8 0
BBX 8 14 0 -2
BITMAP
00
38
68
a8
a8
a8
a8
a8
80
80
80
80
00
00
ENDCHAR
STARTCHAR a3bc
ENCODING 267
SWIDTH 903 0
DWIDTH 8 0
BBX 8 14 0 -2
BITMAP
00
38
68
a8
a8
a8
a8
a8
08
08
08
3e
22
00
ENDCHAR
STARTCHAR a3c0
ENCODING 268
SWIDTH 903 0
DWIDTH 8 0
BBX 8 14 0 -2
BITMAP
00
3e
72
92
92
92
92
92
92
92
da
da
00
00
ENDCHAR
STARTCHAR a3c1
ENCODING 269
SWIDTH 903 0
DWIDTH 8 0
BBX 8 14 0 -2
BITMAP
00
3e
72
92
92
92
93
92
92
92
da
da
00
00
ENDCHAR
STARTCHAR a3c2
ENCODING 270
SWIDTH 903 0
DWIDTH 8 0
BBX 8 14 0 -2
BITMAP
00
3e
72
92
92
92
92
92
92
92
da
db
00
00
ENDCHAR
STARTCHAR a3c3
ENCODING 271
SWIDTH 903 0
DWIDTH 8 0
BBX 8 14 0 -2
BITMAP
00
7e
92
92
92
92
da
da
02
02
02
02
00
00
ENDCHAR
STARTCHAR a3c3
ENCODING 272
SWIDTH 903 0
DWIDTH 8 0
BBX 8 14 0 -2
BITMAP
00
38
68
a8
a8
af
ad
ab
a8
a8
fe
fe
00
00
ENDCHAR
STARTCHAR a3c4
ENCODING 273
SWIDTH 903 0
DWIDTH 8 0
BBX 8 14 0 -2
BITMAP
00
7c
92
92
d3
d3
10
08
08
08
0c
0c
00
00
ENDCHAR
STARTCHAR a3c5
ENCODING 274
SWIDTH 903 0
DWIDTH 8 0
BBX 8 14 0 -2
BITMAP
00
3e
72
92
92
9b
9b
80
80
80
c0
c0
00
00
ENDCHAR
STARTCHAR a3c3
ENCODING 275
SWIDTH 903 0
DWIDTH 8 0
BBX 8 14 0 -2
BITMAP
00
7e
92
92
92
92
da
da
02
02
02
0f
09
00
ENDCHAR
STARTCHAR Pe
ENCODING 276
SWIDTH 903 0
DWIDTH 8 0
BBX 8 14 0 -2
BITMAP
18
18
3c
66
66
66
3c
18
3c
66
66
66
00
00
ENDCHAR
STARTCHAR Pu
ENCODING 277
SWIDTH 903 0
DWIDTH 8 0
BBX 8 14 0 -2
BITMAP
30
30
78
cc
cc
cc
78
30
78
cf
cd
cc
00
00
ENDCHAR
STARTCHAR a3c6
ENCODING 278
SWIDTH 903 0
DWIDTH 8 0
BBX 8 14 0 -2
BITMAP
30
30
78
cc
cc
cc
78
30
78
cc
cc
cf
03
00
ENDCHAR
STARTCHAR a3c7
ENCODING 279
SWIDTH 903 0
DWIDTH 8 0
BBX 8 14 0 -2
BITMAP
18
18
3c
66
66
66
3c
18
3c
66
66
06
00
00
ENDCHAR
STARTCHAR a3c8
ENCODING 280
SWIDTH 903 0
DWIDTH 8 0
BBX 8 14 0 -2
BITMAP
30
30
78
cc
cc
cc
78
30
7c
cf
cd
cf
00
00
ENDCHAR
STARTCHAR a3c9
ENCODING 281
SWIDTH 903 0
DWIDTH 8 0
BBX 8 14 0 -2
BITMAP
30
30
78
cc
cf
cd
78
30
78
cc
cc
cc
00
00
ENDCHAR
STARTCHAR a3ca
ENCODING 282
SWIDTH 903 0
DWIDTH 8 0
BBX 8 14 0 -2
BITMAP
18
18
3c
66
66
66
3c
18
3c
66
66
60
00
00
ENDCHAR
STARTCHAR PWa
ENCODING 283
SWIDTH 903 0
DWIDTH 8 0
BBX 8 14 0 -2
BITMAP
30
30
78
cc
cc
cc
78
30
78
cc
cc
1f
33
00
ENDCHAR
STARTCHAR Se
ENCODING 284
SWIDTH 903 0
DWIDTH 8 0
BBX 8 14 0 -2
BITMAP
00
18
3c
66
66
66
3c
18
3c
66
66
66
00
00
ENDCHAR
STARTCHAR Pu
ENCODING 285
SWIDTH 903 0
DWIDTH 8 0
BBX 8 14 0 -2
BITMAP
00
30
78
cc
cc
cc
78
30
78
cf
cd
cc
00
00
ENDCHAR
STARTCHAR a3c6
ENCODING 286
SWIDTH 903 0
DWIDTH 8 0
BBX 8 14 0 -2
BITMAP
00
30
78
cc
cc
cc
78
30
78
cc
cc
cf
03
00
ENDCHAR
STARTCHAR a3c7
ENCODING 287
SWIDTH 903 0
DWIDTH 8 0
BBX 8 14 0 -2
BITMAP
00
30
78
cc
cc
cc
78
30
78
cc
cc
0c
00
00
ENDCHAR
STARTCHAR a3c8
ENCODING 288
SWIDTH 903 0
DWIDTH 8 0
BBX 8 14 0 -2
BITMAP
00
30
78
cc
cc
cc
78
30
7c
cf
cd
cf
00
00
ENDCHAR
STARTCHAR a3c9
ENCODING 289
SWIDTH 903 0
DWIDTH 8 0
BBX 8 14 0 -2
BITMAP
00
30
78
cc
cf
cd
78
30
78
cc
cc
cc
00
00
ENDCHAR
STARTCHAR a3ca
ENCODING 290
SWIDTH 903 0
DWIDTH 8 0
BBX 8 14 0 -2
BITMAP
00
30
78
cc
cc
cc
78
30
78
cc
cc
c0
00
00
ENDCHAR
STARTCHAR PWa
ENCODING 291
SWIDTH 903 0
DWIDTH 8 0
BBX 8 14 0 -2
BITMAP
00
30
78
cc
cc
cc
78
30
78
cc
cc
1f
33
00
ENDCHAR
STARTCHAR `Se
ENCODING 292
SWIDTH 903 0
DWIDTH 8 0
BBX 8 14 0 -2
BITMAP
0c
3e
76
66
66
7e
66
66
66
66
6c
38
00
00
ENDCHAR
STARTCHAR a3cc
ENCODING 293
SWIDTH 903 0
DWIDTH 8 0
BBX 8 14 0 -2
BITMAP
18
7c
6c
cc
cc
fc
cf
cd
cc
cc
d8
70
00
00
ENDCHAR
STARTCHAR a3cd
ENCODING 294
SWIDTH 903 0
DWIDTH 8 0
BBX 8 14 0 -2
BITMAP
78
cc
cc
fc
cc
7c
0c
18
18
30
3e
06
00
00
ENDCHAR
STARTCHAR a3ce
ENCODING 295
SWIDTH 903 0
DWIDTH 8 0
BBX 8 14 0 -2
BITMAP
3c
66
66
7e
66
3e
06
0c
0c
0c
0c
0c
00
00
ENDCHAR
STARTCHAR a3cf
ENCODING 296
SWIDTH 903 0
DWIDTH 8 0
BBX 8 14 0 -2
BITMAP
78
cc
cc
fc
cc
7c
0c
18
30
3e
36
3e
00
00
ENDCHAR
STARTCHAR a3d0
ENCODING 297
SWIDTH 903 0
DWIDTH 8 0
BBX 8 14 0 -2
BITMAP
18
18
18
3c
36
66
66
7e
66
66
6c
38
00
00
ENDCHAR
STARTCHAR a3d1
ENCODING 298
SWIDTH 903 0
DWIDTH 8 0
BBX 8 14 0 -2
BITMAP
3c
66
66
7e
66
3e
0c
18
30
60
60
60
00
00
ENDCHAR
STARTCHAR a3d2
ENCODING 299
SWIDTH 903 0
DWIDTH 8 0
BBX 8 14 0 -2
BITMAP
18
18
18
30
30
60
60
f0
d8
d8
ff
63
00
00
ENDCHAR
STARTCHAR a3d3
ENCODING 300
SWIDTH 903 0
DWIDTH 8 0
BBX 8 14 0 -2
BITMAP
18
18
18
30
60
70
d8
d8
ff
33
60
60
00
00
ENDCHAR
STARTCHAR a3d4
ENCODING 301
SWIDTH 903 0
DWIDTH 8 0
BBX 8 14 0 -2
BITMAP
18
18
18
30
30
60
60
f0
db
db
ff
76
00
00
ENDCHAR
STARTCHAR a3d5
ENCODING 302
SWIDTH 903 0
DWIDTH 8 0
BBX 8 14 0 -2
BITMAP
18
18
18
30
60
70
d8
d8
ff
1b
18
18
00
00
ENDCHAR
STARTCHAR a3d6
ENCODING 303
SWIDTH 903 0
DWIDTH 8 0
BBX 8 14 0 -2
BITMAP
18
18
18
30
30
60
70
d8
d8
d7
fd
67
00
00
ENDCHAR
STARTCHAR a3d7
ENCODING 304
SWIDTH 903 0
DWIDTH 8 0
BBX 8 14 0 -2
BITMAP
00
3e
66
c0
c0
f0
d8
d8
df
7b
18
18
00
00
ENDCHAR
STARTCHAR a3d8
ENCODING 305
SWIDTH 903 0
DWIDTH 8 0
BBX 8 14 0 -2
BITMAP
00
3f
65
c5
c7
f0
d8
d8
d8
d8
ff
73
00
00
ENDCHAR
STARTCHAR a3d9
ENCODING 306
SWIDTH 903 0
DWIDTH 8 0
BBX 8 14 0 -2
BITMAP
c3
ff
18
30
60
70
d8
d8
ff
1b
18
18
00
00
ENDCHAR
STARTCHAR a3da
ENCODING 307
SWIDTH 903 0
DWIDTH 8 0
BBX 8 14 0 -2
BITMAP
ff
db
18
18
18
18
18
18
18
18
18
18
00
00
ENDCHAR
STARTCHAR a3db
ENCODING 308
SWIDTH 903 0
DWIDTH 8 0
BBX 8 14 0 -2
BITMAP
ff
db
18
18
18
18
1f
1b
18
18
18
18
00
00
ENDCHAR
STARTCHAR a3dc
ENCODING 309
SWIDTH 903 0
DWIDTH 8 0
BBX 8 14 0 -2
BITMAP
ff
db
18
18
18
18
18
18
18
18
1f
03
00
00
ENDCHAR
STARTCHAR a3dd
ENCODING 310
SWIDTH 903 0
DWIDTH 8 0
BBX 8 14 0 -2
BITMAP
ff
db
18
18
18
18
18
30
60
c0
c0
c0
00
00
ENDCHAR
STARTCHAR a3de
ENCODING 311
SWIDTH 903 0
DWIDTH 8 0
BBX 8 14 0 -2
BITMAP
ff
db
18
18
18
18
18
18
1e
1b
1b
1e
00
00
ENDCHAR
STARTCHAR a3df
ENCODING 312
SWIDTH 903 0
DWIDTH 8 0
BBX 8 14 0 -2
BITMAP
ff
db
18
18
1c
0c
0c
0c
0c
0c
0c
0c
00
00
ENDCHAR
STARTCHAR a3e0
ENCODING 313
SWIDTH 903 0
DWIDTH 8 0
BBX 8 14 0 -2
BITMAP
ff
db
18
18
30
30
60
60
c0
c0
c0
c0
00
00
ENDCHAR
STARTCHAR a3dd
ENCODING 314
SWIDTH 903 0
DWIDTH 8 0
BBX 8 14 0 -2
BITMAP
ff
db
18
18
18
18
18
18
18
18
18
7f
c3
00
ENDCHAR
STARTCHAR mYa
ENCODING 315
SWIDTH 903 0
DWIDTH 8 0
BBX 8 14 0 -2
BITMAP
c6
fe
1c
6a
aa
aa
aa
ae
42
02
02
02
00
00
ENDCHAR
STARTCHAR rYa
ENCODING 316
SWIDTH 903 0
DWIDTH 8 0
BBX 8 14 0 -2
BITMAP
c3
ff
18
30
30
60
60
c0
c6
c3
e3
7e
00
00
ENDCHAR
STARTCHAR fYa
ENCODING 317
SWIDTH 903 0
DWIDTH 8 0
BBX 8 14 0 -2
BITMAP
c3
ff
18
30
30
60
60
f0
db
db
ff
76
00
00
ENDCHAR
STARTCHAR GEEZ-SPACE
ENCODING 318
SWIDTH 903 0
DWIDTH 8 0
BBX 8 14 0 -2
BITMAP
00
00
00
00
00
00
00
00
00
00
00
00
00
00
ENDCHAR
STARTCHAR 013f
ENCODING 319
SWIDTH 903 0
DWIDTH 8 0
BBX 8 14 0 -2
BITMAP
00
00
00
00
18
18
00
18
18
00
00
00
00
00
ENDCHAR
STARTCHAR 0140
ENCODING 320
SWIDTH 903 0
DWIDTH 8 0
BBX 8 14 0 -2
BITMAP
00
00
00
00
6c
6c
00
6c
6c
00
00
00
00
00
ENDCHAR
STARTCHAR 0141
ENCODING 321
SWIDTH 903 0
DWIDTH 8 0
BBX 8 14 0 -2
BITMAP
00
06
7e
60
18
18
00
18
18
00
00
00
00
00
ENDCHAR
STARTCHAR 0142
ENCODING 322
SWIDTH 903 0
DWIDTH 8 0
BBX 8 14 0 -2
BITMAP
00
06
7e
60
18
18
00
18
18
06
7e
60
00
00
ENDCHAR
STARTCHAR 0143
ENCODING 323
SWIDTH 903 0
DWIDTH 8 0
BBX 8 14 0 -2
BITMAP
00
00
18
18
06
7e
60
18
18
00
00
00
00
00
ENDCHAR
STARTCHAR 0144
ENCODING 324
SWIDTH 903 0
DWIDTH 8 0
BBX 8 14 0 -2
BITMAP
00
00
18
18
00
0f
00
18
18
00
00
00
00
00
ENDCHAR
STARTCHAR 0145
ENCODING 325
SWIDTH 903 0
DWIDTH 8 0
BBX 8 14 0 -2
BITMAP
00
18
18
00
18
18
00
18
18
00
00
00
00
00
ENDCHAR
STARTCHAR 0146
ENCODING 326
SWIDTH 903 0
DWIDTH 8 0
BBX 8 14 0 -2
BITMAP
18
18
c3
db
18
db
c3
18
18
00
00
00
00
00
ENDCHAR
STARTCHAR 0147
ENCODING 327
SWIDTH 903 0
DWIDTH 8 0
BBX 8 14 0 -2
BITMAP
fe
c6
00
30
30
70
e8
cc
cc
78
00
fe
c6
00
ENDCHAR
STARTCHAR 0148
ENCODING 328
SWIDTH 903 0
DWIDTH 8 0
BBX 8 14 0 -2
BITMAP
ff
c3
3c
76
e6
fc
e0
7c
76
3c
00
ff
c3
00
ENDCHAR
STARTCHAR 0149
ENCODING 329
SWIDTH 903 0
DWIDTH 8 0
BBX 8 14 0 -2
BITMAP
fe
c6
00
7c
6c
60
60
60
60
70
00
fe
86
00
ENDCHAR
STARTCHAR 014a
ENCODING 330
SWIDTH 903 0
DWIDTH 8 0
BBX 8 14 0 -2
BITMAP
fe
c6
38
6c
6c
6c
6c
6c
6c
38
00
fe
c6
00
ENDCHAR
STARTCHAR 014b
ENCODING 331
SWIDTH 903 0
DWIDTH 8 0
BBX 8 14 0 -2
BITMAP
ff
c3
18
18
30
7e
c6
c0
cc
7e
00
ff
c3
00
ENDCHAR
STARTCHAR 014c
ENCODING 332
SWIDTH 903 0
DWIDTH 8 0
BBX 8 14 0 -2
BITMAP
ff
c3
00
7c
6c
0c
18
1e
32
3e
00
ff
c3
00
ENDCHAR
STARTCHAR 014d
ENCODING 333
SWIDTH 903 0
DWIDTH 8 0
BBX 8 14 0 -2
BITMAP
ff
c3
00
7c
6c
0c
18
18
36
3e
00
ff
c3
00
ENDCHAR
STARTCHAR 014e
ENCODING 334
SWIDTH 903 0
DWIDTH 8 0
BBX 8 14 0 -2
BITMAP
ff
c3
00
ff
db
18
18
18
ff
c3
00
ff
c3
00
ENDCHAR
STARTCHAR 014f
ENCODING 335
SWIDTH 903 0
DWIDTH 8 0
BBX 8 14 0 -2
BITMAP
ff
c3
00
66
66
7e
66
66
64
38
00
ff
c3
00
ENDCHAR
STARTCHAR 0150
ENCODING 336
SWIDTH 903 0
DWIDTH 8 0
BBX 8 14 0 -2
BITMAP
7e
66
00
18
18
18
18
18
18
18
00
7e
66
00
ENDCHAR
STARTCHAR 0151
ENCODING 337
SWIDTH 903 0
DWIDTH 8 0
BBX 8 14 0 -2
BITMAP
ff
c3
00
7e
5a
30
3c
66
66
66
00
ff
c3
00
ENDCHAR
STARTCHAR 0152
ENCODING 338
SWIDTH 903 0
DWIDTH 8 0
BBX 8 14 0 -2
BITMAP
ff
c3
00
6e
db
db
db
db
db
73
00
ff
c3
00
ENDCHAR
STARTCHAR 0153
ENCODING 339
SWIDTH 903 0
DWIDTH 8 0
BBX 8 14 0 -2
BITMAP
ff
c3
00
db
db
df
db
73
03
03
00
ff
c3
00
ENDCHAR
STARTCHAR 0154
ENCODING 340
SWIDTH 903 0
DWIDTH 8 0
BBX 8 14 0 -2
BITMAP
ff
c3
00
66
66
66
3c
0c
0c
0c
00
ff
c3
00
ENDCHAR
STARTCHAR 0155
ENCODING 341
SWIDTH 903 0
DWIDTH 8 0
BBX 8 14 0 -2
BITMAP
ff
c3
00
ff
db
1c
0c
0c
7f
63
00
ff
c3
00
ENDCHAR
STARTCHAR 0156
ENCODING 342
SWIDTH 903 0
DWIDTH 8 0
BBX 8 14 0 -2
BITMAP
ff
c3
00
3e
65
c5
c7
c0
c0
7e
06
ff
c3
00
ENDCHAR
STARTCHAR 0157
ENCODING 343
SWIDTH 903 0
DWIDTH 8 0
BBX 8 14 0 -2
BITMAP
fe
c6
00
fe
ee
6c
6c
6c
6c
6c
00
fe
c6
00
ENDCHAR
STARTCHAR 0158
ENCODING 344
SWIDTH 903 0
DWIDTH 8 0
BBX 8 14 0 -2
BITMAP
ff
c3
78
6c
08
1c
06
0c
18
18
00
ff
c3
00
ENDCHAR
STARTCHAR 0159
ENCODING 345
SWIDTH 903 0
DWIDTH 8 0
BBX 8 14 0 -2
BITMAP
ff
c3
3c
66
66
2c
30
30
30
30
00
ff
c3
00
ENDCHAR
STARTCHAR 015a
ENCODING 346
SWIDTH 903 0
DWIDTH 8 0
BBX 8 14 0 -2
BITMAP
ff
c3
66
99
99
aa
cc
cc
cc
cc
00
ff
c3
00
ENDCHAR
STARTCHAR 015b
ENCODING 347
SWIDTH 903 0
DWIDTH 8 0
BBX 8 14 0 -2
BITMAP
00
18
99
42
24
db
db
24
42
99
18
00
00
00
ENDCHAR
STARTCHAR 015c
ENCODING 348
SWIDTH 903 0
DWIDTH 8 0
BBX 8 14 0 -2
BITMAP
00
18
18
00
18
18
18
3c
3c
3c
18
00
00
00
ENDCHAR
STARTCHAR 015d
ENCODING 349
SWIDTH 903 0
DWIDTH 8 0
BBX 8 14 0 -2
BITMAP
00
00
00
00
00
00
00
00
18
18
00
00
00
00
ENDCHAR
STARTCHAR 015e
ENCODING 350
SWIDTH 903 0
DWIDTH 8 0
BBX 8 14 0 -2
BITMAP
00
00
1b
36
6c
d8
6c
36
1b
00
00
00
00
00
ENDCHAR
STARTCHAR 015f
ENCODING 351
SWIDTH 903 0
DWIDTH 8 0
BBX 8 14 0 -2
BITMAP
00
00
d8
6c
36
1b
36
6c
d8
00
00
00
00
00
ENDCHAR
STARTCHAR 0160
ENCODING 352
SWIDTH 903 0
DWIDTH 8 0
BBX 8 14 0 -2
BITMAP
00
3e
63
63
06
0c
18
18
00
18
18
00
00
00
ENDCHAR
ENDFONT
